<svg xmlns="http://www.w3.org/2000/svg" width="25.945" height="27.496" viewBox="0 0 25.945 27.496"><defs><style>.a{fill:#fff;}</style></defs><g transform="translate(0 0)"><path class="a" d="M26.265,22.23l-5.251-3.712a1.475,1.475,0,0,0-2.052.353l-1.53,2.084a.63.63,0,0,1-.838.187l-.291-.17a17.73,17.73,0,0,1-4.583-3.815,18.646,18.646,0,0,1-3.6-4.857l-.16-.308a.721.721,0,0,1,.173-.892L10.1,9.48a1.692,1.692,0,0,0,.334-2.175L6.93,1.739a1.474,1.474,0,0,0-2.055-.49l-2.2,1.4A3.264,3.264,0,0,0,1.266,4.59C.475,7.644,1.07,12.914,8.4,20.678c5.827,6.175,10.165,7.836,13.146,7.836a7.254,7.254,0,0,0,2.032-.281,3.126,3.126,0,0,0,1.833-1.5l1.32-2.326A1.676,1.676,0,0,0,26.265,22.23Zm-.283,1.709-1.317,2.327a2.258,2.258,0,0,1-1.319,1.083c-2.66.774-7.307.133-14.339-7.32S1.37,7.652,2.1,4.833a2.357,2.357,0,0,1,1.023-1.4l2.2-1.4a.639.639,0,0,1,.892.213l1.9,3.027,1.6,2.538a.734.734,0,0,1-.144.944L7.6,10.379a1.667,1.667,0,0,0-.4,2.058l.156.3A19.373,19.373,0,0,0,11.1,17.806a18.509,18.509,0,0,0,4.781,3.971l.284.166a1.458,1.458,0,0,0,1.942-.425l1.529-2.084a.641.641,0,0,1,.891-.153l5.251,3.712A.726.726,0,0,1,25.982,23.939Z" transform="translate(-1 -1.018)"/><path class="a" d="M283.06,70.24a7.588,7.588,0,0,1,7.35,7.79.433.433,0,1,0,.865,0,8.481,8.481,0,0,0-8.215-8.706.459.459,0,0,0,0,.916Z" transform="translate(-268.359 -65.656)"/><path class="a" d="M283.06,121.44a4.91,4.91,0,0,1,4.756,5.041.433.433,0,1,0,.865,0,5.8,5.8,0,0,0-5.621-5.957.459.459,0,0,0,0,.916Z" transform="translate(-268.359 -114.107)"/><path class="a" d="M283.06,172.64a2.232,2.232,0,0,1,2.162,2.291.433.433,0,1,0,.865,0,3.125,3.125,0,0,0-3.026-3.208.459.459,0,0,0,0,.916Z" transform="translate(-268.359 -162.557)"/></g></svg>