<svg xmlns="http://www.w3.org/2000/svg" width="26" height="19.901" viewBox="0 0 26 19.901"><defs><style>.a{fill:#fff;}</style></defs><path class="a" d="M24.7,59.733H1.3a1.3,1.3,0,0,0-1.3,1.3V78.336a1.3,1.3,0,0,0,1.3,1.3H24.7a1.3,1.3,0,0,0,1.3-1.3V61.031A1.3,1.3,0,0,0,24.7,59.733Zm.433,18.6a.433.433,0,0,1-.433.433H1.3a.433.433,0,0,1-.433-.433V61.031A.433.433,0,0,1,1.3,60.6H24.7a.433.433,0,0,1,.433.433V78.336Z" transform="translate(0 -59.733)"/><path class="a" d="M56.271,93.867a.434.434,0,0,0-.316.1l-10,8.384a.868.868,0,0,1-1.115,0l-10-8.384a.433.433,0,1,0-.557.663l10,8.384a1.733,1.733,0,0,0,2.23,0l10-8.384a.433.433,0,0,0-.241-.762Z" transform="translate(-32.4 -92.135)"/><path class="a" d="M40.608,272.935a.434.434,0,0,0-.418.134l-6.067,6.489a.433.433,0,1,0,.634.59l6.067-6.489a.432.432,0,0,0-.216-.724Z" transform="translate(-32.273 -262.116)"/><path class="a" d="M341.958,273.07a.433.433,0,1,0-.634.59l6.067,6.489a.433.433,0,0,0,.634-.59Z" transform="translate(-323.874 -262.116)"/></svg>