<svg xmlns="http://www.w3.org/2000/svg" width="34.45" height="34.45" viewBox="0 0 34.45 34.45"><defs><style>.a{fill:#3e2723;}</style></defs><path class="a" d="M31.005,0H3.445A3.455,3.455,0,0,0,0,3.445v27.56A3.455,3.455,0,0,0,3.445,34.45h27.56a3.455,3.455,0,0,0,3.445-3.445V3.445A3.455,3.455,0,0,0,31.005,0ZM27.043,12.574C26.871,20.5,21.876,26.01,14.3,26.354A12.538,12.538,0,0,1,6.89,24.287a9.144,9.144,0,0,0,6.718-1.895A4.653,4.653,0,0,1,9.3,19.12a6.948,6.948,0,0,0,1.895,0,4.692,4.692,0,0,1-3.617-4.651,3.472,3.472,0,0,0,1.895.517c-1.55-.861-2.584-4.134-1.378-6.2a13.649,13.649,0,0,0,9.474,4.823c-1.206-4.823,5.34-7.407,7.924-4.134A11.6,11.6,0,0,0,28.421,8.44a4.87,4.87,0,0,1-1.895,2.584,9.874,9.874,0,0,0,2.412-.689C28.766,11.2,27.9,11.885,27.043,12.574Z" transform="translate(0 0)"/></svg>